<svg width="14" height="18" viewBox="0 0 14 18" fill="none" xmlns="http://www.w3.org/2000/svg">
<path d="M1.99998 17.3334H12C12.442 17.3334 12.8659 17.1578 13.1785 16.8452C13.4911 16.5326 13.6666 16.1087 13.6666 15.6667V2.33335C13.6666 1.89133 13.4911 1.4674 13.1785 1.15484C12.8659 0.842282 12.442 0.666687 12 0.666687H1.99998C1.55795 0.666687 1.13403 0.842282 0.821468 1.15484C0.508908 1.4674 0.333313 1.89133 0.333313 2.33335V15.6667C0.333313 16.1087 0.508908 16.5326 0.821468 16.8452C1.13403 17.1578 1.55795 17.3334 1.99998 17.3334ZM4.49998 14.8334H2.83331V13.1667H4.49998V14.8334ZM4.49998 11.5H2.83331V9.83335H4.49998V11.5ZM4.49998 8.16669H2.83331V6.50002H4.49998V8.16669ZM7.83331 14.8334H6.16665V13.1667H7.83331V14.8334ZM7.83331 11.5H6.16665V9.83335H7.83331V11.5ZM7.83331 8.16669H6.16665V6.50002H7.83331V8.16669ZM11.1666 14.8334H9.49998V9.83335H11.1666V14.8334ZM11.1666 8.16669H9.49998V6.50002H11.1666V8.16669ZM1.99998 2.33335H12V4.83335H1.99998V2.33335Z" fill="white"/>
</svg>
