<svg width="361" height="344" viewBox="0 0 361 344" fill="none" xmlns="http://www.w3.org/2000/svg">
<path fill-rule="evenodd" clip-rule="evenodd" d="M120.529 91.7679C134.906 59.2768 226.309 65.2235 254.433 107.402C282.557 149.58 250.415 243.285 221.603 243.285C192.791 243.285 192.791 180.019 180.911 161.439C169.032 142.859 106.153 124.259 120.529 91.7679Z" fill="#91FFBD" fill-opacity="0.7"/>
<path fill-rule="evenodd" clip-rule="evenodd" d="M90.6367 183.898C98.785 199.162 113.062 187.658 131.417 171.691C149.773 155.724 173.045 139.96 164.897 124.696C156.749 109.433 127.474 111.382 109.118 127.349C90.7628 143.317 82.4883 168.635 90.6367 183.898Z" fill="#2B44FF" fill-opacity="0.6"/>
<path fill-rule="evenodd" clip-rule="evenodd" d="M248.973 230.73C260.585 230.73 273.397 219.611 273.397 205.442C273.397 191.273 260.585 180.154 248.973 180.154C237.36 180.154 233.041 196.369 233.041 207.99C233.041 219.611 237.36 230.73 248.973 230.73Z" fill="#FF73C6" fill-opacity="0.7"/>
<path fill-rule="evenodd" clip-rule="evenodd" d="M160.583 147.56C163.516 149.334 166.398 150.192 167.75 149.842C171.143 148.964 171.455 136.506 168.83 131.594C166.205 126.683 152.712 124.542 152.032 134.274C151.796 137.651 153.208 140.665 155.295 143.124L151.553 160.636H162.423L160.583 147.56Z" fill="#B28B67"/>
<path fill-rule="evenodd" clip-rule="evenodd" d="M154.46 145.314C153.096 139.221 149.209 135.067 149.802 132.343C150.396 129.62 152.967 128.956 152.967 128.956C152.967 128.956 154.297 123.557 161.543 124.363C168.79 125.169 173.213 128.19 171.303 134.838C169.547 134.838 167.427 134.201 164.497 135.293C163.101 135.813 162.501 138.517 162.501 138.517H161.176C161.176 138.517 159.248 135.308 157.374 136.158C155.499 137.009 156.522 140.291 156.522 140.291L155.87 145.314H154.46Z" fill="#191847"/>
<path fill-rule="evenodd" clip-rule="evenodd" d="M131.905 217.475H166.898L171.483 273.859H119.394L131.905 217.475Z" fill="#C5CFD6"/>
<path fill-rule="evenodd" clip-rule="evenodd" d="M131.905 217.475H142.667L149.108 273.859H119.394L131.905 217.475Z" fill="black" fill-opacity="0.1"/>
<path fill-rule="evenodd" clip-rule="evenodd" d="M186.124 228.645C182.191 237.018 176.047 257.341 176.047 257.341L181.263 259.733C181.263 259.733 194.499 238.37 202.588 223.766C202.211 227.054 201.828 230.755 201.472 234.646C200.629 243.864 201.471 263.777 201.925 269.529C202.21 273.144 207.103 272.387 207.56 269.52C207.637 269.035 207.952 267.329 208.422 264.786C210.73 252.311 216.767 219.666 216.778 211.671C216.782 208.455 210.523 205.566 206.792 207.815C204.23 205.07 199.379 203.488 196.593 208.022C194.821 210.905 190.612 219.089 186.124 228.645Z" fill="#B28B67"/>
<path fill-rule="evenodd" clip-rule="evenodd" d="M176.42 249.816L194.324 207.238C198.613 200.311 210.639 208.647 209.176 212.664C205.855 221.785 188.967 251.312 187.978 254.03L176.42 249.816Z" fill="#1F28CF"/>
<path fill-rule="evenodd" clip-rule="evenodd" d="M177.293 255.532C176.665 254.757 175.527 254.557 174.789 255.224C174.174 255.78 173.53 256.425 173.249 256.914C172.636 257.98 171.815 260.228 171.815 260.228C173.045 260.941 193.94 273.051 193.94 273.051C193.94 273.051 196.448 270.688 194.721 269.384C192.994 268.078 191.871 267.182 191.871 267.182L184.474 256.951C184.193 256.562 183.648 256.483 183.269 256.775L182.005 257.753C182.005 257.753 179.821 257.562 178.746 256.938C178.285 256.671 177.751 256.098 177.293 255.532Z" fill="#E4E4E4"/>
<path fill-rule="evenodd" clip-rule="evenodd" d="M202.836 267.045C201.906 266.688 200.817 267.086 200.51 268.034C200.255 268.824 200.019 269.706 200.019 270.27C200.019 271.5 200.427 273.859 200.427 273.859C201.848 273.859 225.975 273.859 225.975 273.859C225.975 273.859 226.97 270.555 224.825 270.291C222.679 270.027 221.26 269.815 221.26 269.815L209.76 264.668C209.323 264.472 208.81 264.678 208.627 265.121L208.019 266.601C208.019 266.601 206.033 267.532 204.792 267.532C204.259 267.532 203.514 267.305 202.836 267.045Z" fill="#E4E4E4"/>
<path fill-rule="evenodd" clip-rule="evenodd" d="M218.033 214.943C218.033 227.024 212.318 255.202 212.315 257.862L200.019 257.872C200.019 257.872 202.719 220.157 201.933 219.75C201.148 219.344 169.75 222.897 160.334 222.897C146.755 222.897 141.138 214.301 140.682 198.377H167.581C173.058 198.965 201.626 204.75 212.236 206.738C216.778 207.59 218.033 211.615 218.033 214.943Z" fill="#2B44FF"/>
<path fill-rule="evenodd" clip-rule="evenodd" d="M203.806 146.522L186.637 151.696L191.021 159.027L204.369 151.141C210.601 150.768 213.544 150.15 213.202 149.289C212.913 148.563 212.225 148.439 211.591 148.325C211.097 148.236 210.636 148.154 210.422 147.796C209.935 146.981 211.645 144.858 213.352 142.912C215.061 140.966 213.694 140.876 212.868 141.032C210.029 142.189 207.008 144.019 203.806 146.522ZM199.568 192.734L185.12 182.083L181.926 190.01L196.233 195.966C200.28 200.737 202.543 202.727 203.022 201.934C203.425 201.264 203.109 200.638 202.819 200.062C202.592 199.613 202.381 199.193 202.537 198.807C202.892 197.925 205.61 198.018 208.186 198.216C210.761 198.415 210.011 197.264 209.39 196.697C206.76 195.116 203.487 193.796 199.568 192.734Z" fill="#B28B67"/>
<path fill-rule="evenodd" clip-rule="evenodd" d="M162.677 153.4C170.546 168.127 181.923 179.417 198.418 191.154L192.172 198.223C173.755 191.352 164.035 187.207 159.262 173.292C158.065 169.8 157.228 158.667 156.509 152.809L162.677 153.4Z" fill="#2026A2"/>
<path fill-rule="evenodd" clip-rule="evenodd" d="M140.682 202.47H175.559C175.559 202.47 163.709 166.186 163.452 152.665C163.443 152.206 162.598 151.395 162.224 151.501C158.121 152.665 153.442 150.632 153.442 150.632C145.175 163.981 142.315 180.418 140.682 202.47Z" fill="#F2F2F2"/>
<path fill-rule="evenodd" clip-rule="evenodd" d="M162.191 170.999C167.638 194.456 167.388 213.658 155.361 213.658H136.765C133.811 193.731 141.574 166.102 148.77 152.167C149.045 151.635 149.63 150.632 151.008 150.632H156.411C156.414 150.639 156.416 150.646 156.419 150.653C158.045 150.667 159.836 150.726 161.775 150.791C171.758 151.124 185.679 151.587 201.343 146.539L203.189 155.803C189.051 164.931 174.736 172.002 162.191 170.999Z" fill="#1F28CF"/>
</svg>
